name ./resultDataOpenSim/trcMotMarkerGrf/sub09/grf-14-04.mot
datacolumns 19
datarows 10
range 0.95600000 0.99200000
endheader

                time	     ground_force_vx	     ground_force_vy	     ground_force_vz	     ground_force_px	     ground_force_py	     ground_force_pz	   l_ground_force_vx	   l_ground_force_vy	   l_ground_force_vz	   l_ground_force_px	   l_ground_force_py	   l_ground_force_pz	     ground_torque_x	     ground_torque_y	     ground_torque_z	   l_ground_torque_x	   l_ground_torque_y	   l_ground_torque_z	
          0.95600000	          0.00000000	          0.00000000	          0.00000000	          0.00000000	          0.00000000	          0.00000000	          2.63377244	        393.44544235	         19.13934976	          0.11070222	         -0.07499944	         -0.00794315	          0.00000000	          0.00000000	          0.00000000	          0.00000000	         -0.57429202	          0.00000000	
          0.96000000	          0.00000000	          0.00000000	          0.00000000	          0.00000000	          0.00000000	          0.00000000	          3.63487031	        391.83672543	         19.78978358	          0.11097622	         -0.07500000	         -0.00759744	          0.00000000	          0.00000000	          0.00000000	          0.00000000	         -0.61053694	          0.00000000	
          0.96400000	          0.00000000	          0.00000000	          0.00000000	          0.00000000	          0.00000000	          0.00000000	          4.86135289	        390.72641207	         20.33947910	          0.11138022	         -0.07500000	         -0.00720631	          0.00000000	          0.00000000	          0.00000000	          0.00000000	         -0.66039347	          0.00000000	
          0.96800000	          0.00000000	          0.00000000	          0.00000000	          0.00000000	          0.00000000	          0.00000000	          6.30755528	        390.06984582	         20.75660235	          0.11190964	         -0.07500000	         -0.00678882	          0.00000000	          0.00000000	          0.00000000	          0.00000000	         -0.73189787	          0.00000000	
          0.97200000	          0.00000000	          0.00000000	          0.00000000	          0.00000000	          0.00000000	          0.00000000	          7.96683248	        389.88475200	         21.05481897	          0.11252770	         -0.07500000	         -0.00634189	          0.00000000	          0.00000000	          0.00000000	          0.00000000	         -0.83180167	          0.00000000	
          0.97600000	          0.00000000	          0.00000000	          0.00000000	          0.00000000	          0.00000000	          0.00000000	          9.86396944	        390.25452902	         21.25071815	          0.11320024	         -0.07500000	         -0.00586644	          0.00000000	          0.00000000	          0.00000000	          0.00000000	         -0.96517016	          0.00000000	
          0.98000000	          0.00000000	          0.00000000	          0.00000000	          0.00000000	          0.00000000	          0.00000000	         12.06454473	        391.29887406	         21.33563341	          0.11392039	         -0.07500000	         -0.00536785	          0.00000000	          0.00000000	          0.00000000	          0.00000000	         -1.13549060	          0.00000000	
          0.98400000	          0.00000000	          0.00000000	          0.00000000	          0.00000000	          0.00000000	          0.00000000	         14.64066469	        393.13863805	         21.27636508	          0.11468814	         -0.07500000	         -0.00484496	          0.00000000	          0.00000000	          0.00000000	          0.00000000	         -1.34492418	          0.00000000	
          0.98800000	          0.00000000	          0.00000000	          0.00000000	          0.00000000	          0.00000000	          0.00000000	         17.61805663	        395.88721607	         21.02993994	          0.11550821	         -0.07500000	         -0.00429572	          0.00000000	          0.00000000	          0.00000000	          0.00000000	         -1.59434801	          0.00000000	
          0.99200000	          0.00000000	          0.00000000	          0.00000000	          0.00000000	          0.00000000	          0.00000000	         20.95434190	        399.65560411	         20.56519536	          0.11638446	         -0.07500000	         -0.00371082	          0.00000000	          0.00000000	          0.00000000	          0.00000000	         -1.88310956	          0.00000000	
